HIERARCHY
ROOT Hips
{
  OFFSET 52.0466 86.756 28.9814
  CHANNELS 6 Xposition Yposition Zposition Zrotation Xrotation Yrotation
  JOINT spine
  {
    OFFSET 0 6.84637 0.3937
    CHANNELS 3 Zrotation Xrotation Yrotation
    JOINT spine1
    {
      OFFSET 0 9.49621 0
      CHANNELS 3 Zrotation Xrotation Yrotation
      JOINT spine2
      {
        OFFSET 0 9.09909 0
        CHANNELS 3 Zrotation Xrotation Yrotation
        JOINT Neck
        {
          OFFSET 0 23.3612 1.11378
          CHANNELS 3 Zrotation Xrotation Yrotation
          JOINT Head
          {
            OFFSET 0 7.05802 0
            CHANNELS 3 Zrotation Xrotation Yrotation
            End Site
            {
              OFFSET 0 17.0844 -5.63419
            }
          }
        }
        JOINT RightShoulder
        {
          OFFSET -3.83136 9.82631 -0.533491
          CHANNELS 3 Zrotation Xrotation Yrotation
          JOINT RightArm
          {
            OFFSET 0 12.8881 0
            CHANNELS 3 Zrotation Xrotation Yrotation
            JOINT RightArmRoll
            {
              OFFSET 0 6.50617 0
              CHANNELS 3 Zrotation Xrotation Yrotation
              JOINT RightForeArm
              {
                OFFSET 0 18.9501 0
                CHANNELS 3 Zrotation Xrotation Yrotation
                JOINT RightForeArmRoll
                {
                  OFFSET 0 7.30092 0
                  CHANNELS 3 Zrotation Xrotation Yrotation
                  JOINT RightHand
                  {
                    OFFSET 0 14.6514 0
                    CHANNELS 3 Zrotation Xrotation Yrotation
                    End Site
                    {
                      OFFSET 0 0 0
                    }
                  }
                }
              }
            }
          }
        }
        JOINT LeftShoulder
        {
          OFFSET 3.83136 9.82631 -0.533491
          CHANNELS 3 Zrotation Xrotation Yrotation
          JOINT LeftArm
          {
            OFFSET 0 12.8881 0
            CHANNELS 3 Zrotation Xrotation Yrotation
            JOINT LeftArmRoll
            {
              OFFSET 0 6.50616 0
              CHANNELS 3 Zrotation Xrotation Yrotation
              JOINT LeftForeArm
              {
                OFFSET 0 18.9501 0
                CHANNELS 3 Zrotation Xrotation Yrotation
                JOINT LeftForeArmRoll
                {
                  OFFSET 0 7.30092 0
                  CHANNELS 3 Zrotation Xrotation Yrotation
                  JOINT LeftHand
                  {
                    OFFSET 0 14.6514 0
                    CHANNELS 3 Zrotation Xrotation Yrotation
                    End Site
                    {
                      OFFSET 0 0 0
                    }
                  }
                }
              }
            }
          }
        }
      }
    }
  }
  JOINT RightUpLeg
  {
    OFFSET -6.06837 -1.11278 -0.933477
    CHANNELS 3 Zrotation Xrotation Yrotation
    JOINT RightUpLegRoll
    {
      OFFSET 0 17.1796 0
      CHANNELS 3 Zrotation Xrotation Yrotation
      JOINT RightLeg
      {
        OFFSET 0 -21.2743 0
        CHANNELS 3 Zrotation Xrotation Yrotation
        JOINT RightLegRoll
        {
          OFFSET 0 21.3439 0
          CHANNELS 3 Zrotation Xrotation Yrotation
          JOINT RightFoot
          {
            OFFSET 0 17.7652 0
            CHANNELS 3 Zrotation Xrotation Yrotation
            JOINT RightToeBase
            {
              OFFSET 0 14.8508 0
              CHANNELS 3 Zrotation Xrotation Yrotation
              End Site
              {
                OFFSET 0.0062947 7.19213 -0.829005
              }
            }
          }
        }
      }
    }
  }
  JOINT LeftUpLeg
  {
    OFFSET 6.06837 -1.11278 -0.933477
    CHANNELS 3 Zrotation Xrotation Yrotation
    JOINT LeftUpLegRoll
    {
      OFFSET 0 17.1797 0
      CHANNELS 3 Zrotation Xrotation Yrotation
      JOINT LeftLeg
      {
        OFFSET 0 21.2742 0
        CHANNELS 3 Zrotation Xrotation Yrotation
        JOINT LeftLegRoll
        {
          OFFSET 0 21.5412 0
          CHANNELS 3 Zrotation Xrotation Yrotation
          JOINT LeftFoot
          {
            OFFSET 0 17.5679 0
            CHANNELS 3 Zrotation Xrotation Yrotation
            JOINT LeftToeBase
            {
              OFFSET 0 14.8508 0
              CHANNELS 3 Zrotation Xrotation Yrotation
              End Site
              {
                OFFSET -0.0282102 7.19213 -0.829005
              }
            }
          }
        }
      }
    }
  }
}
MOTION
Frames: 14
Frame Time: 0.00208333
53.1591 54.9506 -1.20538 6.03232 25.1109 -8.67234 -0.628435 1.49544 1.11821 -1.30462 6.98043 2.33816 -1.33607 8.62467 2.36432 -18.3651 -1.83007 -2.81493 17.3423 9.14897 -5.92452 38.6886 -8.51661 -4.78395 117.518 29.7972 -73.8701 6.74883e-006 -5.76669e-006 2.42418e-006 2.34917 63.3111 6.76732 -6.22842e-006 2.37788e-006 -2.99999 8.03052 -4.95135 0.697576 -54.7238 -8.09712 4.89624 -123.561 50.4493 59.104 8.07503e-007 -1.78416e-006 9.74954e-006 -36.1921 37.9061 8.19498 6.57479e-006 6.91892e-006 3 -8.03024 -4.95154 -0.697812 26.9956 70.4567 155.897 180 1.52564e-005 178.992 148.531 88.0216 -151.018 -1.98147e-006 1.70924e-006 2.3008 -24.1727 69.9816 21.5679 8.13648 25.2326 -3.48773 -43.5004 70.0696 -143.045 4.54188e-006 -4.6773e-006 -0.377726 168.791 -87.2569 174.733 -2.5591e-006 -2.09025e-006 -1.84455 27.5444 75.6257 -29.2204 -8.1268 25.2332 3.48151 
53.1592 55.0011 -1.16348 6.04118 25.3295 -8.68717 -0.624722 1.48986 1.11417 -1.29688 6.96938 2.3294 -1.32821 8.61364 2.35541 -18.3579 -1.92717 -2.83516 17.3445 9.16951 -5.93082 38.6369 -8.51047 -4.77673 117.453 29.6008 -73.9001 6.74883e-006 -5.76669e-006 2.42418e-006 1.90201 63.6092 7.0234 -6.22842e-006 2.37788e-006 -2.99999 8.03052 -4.95135 0.697576 -54.6974 -8.09998 4.89745 -123.498 50.2971 59.01 8.07503e-007 -1.78416e-006 9.74954e-006 -36.0147 38.1084 8.21179 6.57479e-006 6.91892e-006 3 -8.03024 -4.95154 -0.697812 26.8779 70.3504 156.042 180 1.52564e-005 178.995 148.261 87.9586 -150.795 -1.98147e-006 1.70924e-006 2.29877 -24.2339 70.024 21.6164 8.13648 25.2326 -3.48773 -43.2162 69.9855 -143.299 4.54188e-006 -4.6773e-006 -0.375147 169.379 -87.3107 175.343 -2.5591e-006 -2.09025e-006 -1.8376 27.6342 75.665 -29.302 -8.1268 25.2332 3.48151 
53.161 55.0531 -1.12205 6.05463 25.5525 -8.70283 -0.621505 1.48317 1.10906 -1.29008 6.95615 2.31857 -1.32125 8.60041 2.34444 -18.358 -2.02409 -2.85242 17.3542 9.1914 -5.93551 38.5807 -8.50167 -4.76686 117.4 29.4072 -73.9261 6.74883e-006 -5.76669e-006 2.42418e-006 1.47029 63.8979 7.2708 -6.22842e-006 2.37788e-006 -2.99999 8.03052 -4.95135 0.697576 -54.6792 -8.10489 4.90026 -123.424 50.1469 58.9155 8.07503e-007 -1.78416e-006 9.74954e-006 -35.8369 38.3146 8.22803 6.57479e-006 6.91892e-006 3 -8.03024 -4.95154 -0.697812 26.7558 70.2381 156.187 180 1.52565e-005 178.998 147.991 87.8961 -150.57 -1.98147e-006 1.70924e-006 2.29647 -24.2944 70.0663 21.665 8.13648 25.2326 -3.48773 -42.9176 69.9013 -143.566 4.54188e-006 -4.6773e-006 -0.372611 170.019 -87.3638 176.004 -2.5591e-006 -2.09025e-006 -1.82991 27.7231 75.7059 -29.3862 -8.1268 25.2332 3.48151 
53.1629 55.1042 -1.07873 6.07329 25.7804 -8.71946 -0.618852 1.47528 1.10277 -1.28432 6.94049 2.30545 -1.31531 8.58476 2.33119 -18.3663 -2.12093 -2.86628 17.3723 9.21512 -5.93838 38.5193 -8.48994 -4.75408 117.362 29.2166 -73.9479 6.74883e-006 -5.76669e-006 2.42418e-006 1.05691 64.1763 7.50727 -6.22842e-006 2.37788e-006 -2.99999 8.03052 -4.95135 0.697576 -54.67 -8.11218 4.90492 -123.337 49.9991 58.8208 8.07503e-007 -1.78416e-006 9.74954e-006 -35.6587 38.5248 8.24365 6.57479e-006 6.91892e-006 3 -8.03024 -4.95154 -0.697812 26.6285 70.1188 156.333 180 1.52565e-005 179.001 147.716 87.8343 -150.34 -1.98147e-006 1.70924e-006 2.29388 -24.3538 70.1086 21.7137 8.13648 25.2326 -3.48773 -42.6023 69.817 -143.846 4.54188e-006 -4.6773e-006 -0.370099 170.716 -87.4161 176.723 -2.5591e-006 -2.09025e-006 -1.82137 27.8109 75.7486 -29.4735 -8.1268 25.2332 3.48151 
53.1606 55.1709 -1.0467 6.09622 26.0148 -8.73617 -0.616595 1.46594 1.09517 -1.27927 6.92196 2.28974 -1.31005 8.56624 2.31535 -18.3832 -2.21879 -2.87676 17.4006 9.24018 -5.93925 38.453 -8.4751 -4.73828 117.336 29.028 -73.9665 6.74883e-006 -5.76669e-006 2.42418e-006 0.658413 64.4452 7.73547 -6.22842e-006 2.37788e-006 -2.99999 8.03052 -4.95135 0.697576 -54.6697 -8.12151 4.91122 -123.237 49.8527 58.7236 8.07503e-007 -1.78416e-006 9.74954e-006 -35.4776 38.7415 8.25857 6.57479e-006 6.91892e-006 3 -8.03024 -4.95154 -0.697812 26.4962 69.9915 156.481 180 1.52565e-005 179.005 147.421 87.7728 -150.09 -1.98147e-006 1.70924e-006 2.29097 -24.4132 70.1512 21.7629 8.13648 25.2326 -3.48773 -42.2649 69.7316 -144.144 4.54188e-006 -4.6773e-006 -0.367581 171.473 -87.4675 177.5 -2.5591e-006 -2.09025e-006 -1.81195 27.897 75.7931 -29.5634 -8.1268 25.2332 3.48151 
53.1693 55.2336 -0.996277 6.12199 26.2565 -8.7522 -0.614529 1.45513 1.08629 -1.27453 6.90049 2.27147 -1.30507 8.54478 2.29697 -18.4078 -2.31835 -2.8843 17.4391 9.26563 -5.93818 38.3828 -8.45736 -4.71973 117.323 28.8406 -73.983 6.74883e-006 -5.76669e-006 2.42418e-006 0.269526 64.7059 7.95934 -6.22842e-006 2.37788e-006 -2.99999 8.03052 -4.95135 0.697576 -54.6773 -8.13225 4.91871 -123.123 49.7062 58.6219 8.07503e-007 -1.78416e-006 9.74954e-006 -35.2912 38.9658 8.27278 6.57479e-006 6.91892e-006 3 -8.03024 -4.95154 -0.697812 26.3599 69.8564 156.63 180 1.52565e-005 179.009 147.1 87.711 -149.813 -1.98147e-006 1.70924e-006 2.28773 -24.4731 70.1942 21.813 8.13648 25.2326 -3.48773 -41.9046 69.6447 -144.461 4.54188e-006 -4.6773e-006 -0.365059 172.29 -87.5182 178.336 -2.5591e-006 -2.09025e-006 -1.80175 27.9815 75.839 -29.6555 -8.1268 25.2332 3.48151 
53.1784 55.2799 -0.916374 6.15053 26.5044 -8.76782 -0.612675 1.44302 1.07627 -1.27016 6.87643 2.25095 -1.30042 8.52073 2.27632 -18.4393 -2.4191 -2.8892 17.4865 9.2913 -5.93538 38.3092 -8.43696 -4.69864 117.32 28.6547 -73.9972 6.74883e-006 -5.76669e-006 2.42418e-006 -0.109455 64.9589 8.17856 -6.22842e-006 2.37788e-006 -2.99999 8.03052 -4.95135 0.697576 -54.692 -8.1443 4.9273 -122.996 49.5596 58.5164 8.07503e-007 -1.78416e-006 9.74954e-006 -35.1006 39.1967 8.28638 6.57479e-006 6.91892e-006 3 -8.03024 -4.95154 -0.697812 26.2204 69.7145 156.78 180 1.52565e-005 179.014 146.763 87.6488 -149.522 -1.98147e-006 1.70924e-006 2.28419 -24.5333 70.2377 21.8638 8.13648 25.2326 -3.48773 -41.5254 69.5563 -144.793 4.54188e-006 -4.6773e-006 -0.362559 173.167 -87.5683 179.232 -2.5591e-006 -2.09025e-006 -1.79085 28.0649 75.8862 -29.7498 -8.1268 25.2332 3.48151 
53.1777 55.337 -0.879918 6.18179 26.7575 -8.78334 -0.611051 1.42979 1.06525 -1.26619 6.85013 2.22846 -1.29617 8.49444 2.25371 -18.4767 -2.52055 -2.89177 17.5415 9.31705 -5.93109 38.2326 -8.41417 -4.67528 117.328 28.4704 -74.009 6.74883e-006 -5.76669e-006 2.42418e-006 -0.478259 65.2044 8.39281 -6.22842e-006 2.37788e-006 -2.99999 8.03052 -4.95135 0.697576 -54.7131 -8.15754 4.93689 -122.858 49.413 58.4077 8.07503e-007 -1.78416e-006 9.74954e-006 -34.9066 39.4333 8.29945 6.57479e-006 6.91892e-006 3 -8.03024 -4.95154 -0.697812 26.0785 69.5671 156.93 180 1.52566e-005 179.019 146.421 87.5864 -149.225 -1.98147e-006 1.70924e-006 2.28037 -24.5936 70.2814 21.9151 8.13648 25.2326 -3.48773 -41.1317 69.4666 -145.137 4.54188e-006 -4.6773e-006 -0.360106 174.106 -87.618 -179.811 -2.5591e-006 -2.09025e-006 -1.77934 28.148 75.9346 -29.8463 -8.1268 25.2332 3.48151 
53.1792 55.3941 -0.844718 6.21569 27.0147 -8.79903 -0.609675 1.4156 1.05339 -1.26268 6.82193 2.2043 -1.29235 8.46625 2.22943 -18.5194 -2.6222 -2.8923 17.6025 9.34272 -5.92552 38.1534 -8.38925 -4.64988 117.344 28.2878 -74.0183 6.74883e-006 -5.76669e-006 2.42418e-006 -0.836614 65.4429 8.60175 -6.22842e-006 2.37788e-006 -2.99999 8.03052 -4.95135 0.697576 -54.7401 -8.17185 4.94738 -122.712 49.2665 58.2965 8.07503e-007 -1.78416e-006 9.74954e-006 -34.7101 39.6744 8.31208 6.57479e-006 6.91892e-006 3 -8.03024 -4.95154 -0.697812 25.9349 69.4151 157.08 180 1.52566e-005 179.024 146.08 87.5237 -148.93 -1.98147e-006 1.70924e-006 2.2763 -24.6538 70.3253 21.967 8.13648 25.2326 -3.48773 -40.7275 69.376 -145.49 4.54188e-006 -4.6773e-006 -0.357729 175.109 -87.6672 -178.79 -2.5591e-006 -2.09025e-006 -1.7673 28.2312 75.9839 -29.9448 -8.1268 25.2332 3.48151 
53.1841 55.4491 -0.79213 6.25219 27.275 -8.81518 -0.608568 1.40065 1.04082 -1.25968 6.79219 2.17875 -1.28902 8.43653 2.20377 -18.5663 -2.72354 -2.89109 17.6682 9.36816 -5.9189 38.072 -8.36247 -4.62269 117.368 28.1071 -74.025 6.74883e-006 -5.76669e-006 2.42418e-006 -1.18426 65.6747 8.80509 -6.22842e-006 2.37788e-006 -2.99999 8.03052 -4.95135 0.697576 -54.7722 -8.18713 4.95866 -122.557 49.12 58.1834 8.07503e-007 -1.78416e-006 9.74954e-006 -34.5121 39.919 8.32435 6.57479e-006 6.91892e-006 3 -8.03024 -4.95154 -0.697812 25.7902 69.2597 157.228 180 1.52566e-005 179.029 145.75 87.4606 -148.645 -1.98147e-006 1.70924e-006 2.27201 -24.7135 70.3693 22.0192 8.13648 25.2326 -3.48773 -40.3169 69.2846 -145.848 4.54188e-006 -4.6773e-006 -0.355452 176.177 -87.7159 -177.703 -2.5591e-006 -2.09025e-006 -1.75483 28.3152 76.0341 -30.0454 -8.1268 25.2332 3.48151 
53.1949 55.4929 -0.731583 6.29123 27.5375 -8.83207 -0.607746 1.3851 1.02768 -1.25724 6.76125 2.1521 -1.28623 8.40561 2.17703 -18.6168 -2.82407 -2.88844 17.7373 9.3932 -5.91144 37.9889 -8.33408 -4.59393 117.399 27.9285 -74.029 6.74883e-006 -5.76669e-006 2.42418e-006 -1.52094 65.9002 9.00251 -6.22842e-006 2.37788e-006 -2.99999 8.03052 -4.95135 0.697576 -54.8089 -8.20327 4.97065 -122.397 48.9738 58.069 8.07503e-007 -1.78416e-006 9.74954e-006 -34.3136 40.1661 8.33634 6.57479e-006 6.91892e-006 3 -8.03024 -4.95154 -0.697812 25.6451 69.1019 157.374 180 1.52566e-005 179.035 145.436 87.3973 -148.377 -1.98147e-006 1.70924e-006 2.26754 -24.7725 70.4133 22.0716 8.13648 25.2326 -3.48773 -39.9038 69.1929 -146.208 4.54188e-006 -4.6773e-006 -0.353303 177.313 -87.7644 -176.549 -2.5591e-006 -2.09025e-006 -1.742 28.4006 76.0848 -30.148 -8.1268 25.2332 3.48151 
53.2062 55.5412 -0.689117 6.33277 27.8009 -8.84999 -0.607229 1.36913 1.01412 -1.2554 6.72948 2.12465 -1.28404 8.37385 2.14948 -18.6698 -2.92329 -2.88465 17.8084 9.41769 -5.90339 37.9044 -8.30434 -4.56386 117.437 27.7522 -74.0301 6.74883e-006 -5.76669e-006 2.42418e-006 -1.84642 66.1198 9.19371 -6.22842e-006 2.37788e-006 -2.99999 8.03052 -4.95135 0.697576 -54.8494 -8.22015 4.98324 -122.231 48.8277 57.9539 8.07503e-007 -1.78416e-006 9.74954e-006 -34.1154 40.4145 8.34815 6.57479e-006 6.91892e-006 3 -8.03024 -4.95154 -0.697812 25.5 68.9429 157.518 180 1.52567e-005 179.041 145.146 87.3336 -148.13 -1.98147e-006 1.70924e-006 2.2629 -24.8306 70.4572 22.1241 8.13648 25.2326 -3.48773 -39.4921 69.101 -146.568 4.54188e-006 -4.6773e-006 -0.351308 178.521 -87.8126 -175.323 -2.5591e-006 -2.09025e-006 -1.72891 28.4879 76.1361 -30.2525 -8.1268 25.2332 3.48151 
53.2132 55.5868 -0.657517 6.37676 28.0644 -8.86923 -0.607034 1.35291 1.00028 -1.25421 6.69722 2.09669 -1.28249 8.34159 2.12144 -18.7246 -3.02069 -2.88002 17.8801 9.44148 -5.89494 37.819 -8.27351 -4.53272 117.479 27.5781 -74.0281 6.74883e-006 -5.76669e-006 2.42418e-006 -2.16048 66.3338 9.37843 -6.22842e-006 2.37788e-006 -2.99999 8.03052 -4.95135 0.697576 -54.893 -8.23766 4.99634 -122.062 48.6819 57.8388 8.07503e-007 -1.78416e-006 9.74954e-006 -33.9186 40.6633 8.35983 6.57479e-006 6.91892e-006 3 -8.03024 -4.95154 -0.697812 25.3556 68.7838 157.658 180 1.52567e-005 179.047 144.885 87.2698 -147.912 -1.98147e-006 1.70924e-006 2.25813 -24.8876 70.501 22.1766 8.13648 25.2326 -3.48773 -39.0855 69.0094 -146.924 4.54188e-006 -4.6773e-006 -0.349493 179.802 -87.8605 -174.023 -2.5591e-006 -2.09025e-006 -1.71563 28.5778 76.1876 -30.3589 -8.1268 25.2332 3.48151 
53.2261 55.636 -0.606124 6.42318 28.3268 -8.89006 -0.607178 1.33663 0.986294 -1.2537 6.66481 2.0685 -1.28163 8.3092 2.09318 -18.7804 -3.11577 -2.87484 17.9511 9.4644 -5.88634 37.7331 -8.24187 -4.50074 117.526 27.4067 -74.0231 6.74883e-006 -5.76669e-006 2.42418e-006 -2.46287 66.5426 9.55637 -6.22842e-006 2.37788e-006 -2.99999 8.03052 -4.95135 0.697576 -54.9392 -8.25569 5.00983 -121.892 48.5364 57.7242 8.07503e-007 -1.78416e-006 9.74954e-006 -33.7239 40.9115 8.37147 6.57479e-006 6.91892e-006 3 -8.03024 -4.95154 -0.697812 25.2121 68.6256 157.796 180 1.52567e-005 179.053 144.658 87.2057 -147.727 -1.98147e-006 1.70924e-006 2.25325 -24.943 70.5446 22.2289 8.13648 25.2326 -3.48773 -38.6879 68.9184 -147.273 4.54188e-006 -4.6773e-006 -0.347886 -178.84 -87.9083 -172.644 -2.5591e-006 -2.09025e-006 -1.70226 28.6708 76.2394 -30.4672 -8.1268 25.2332 3.48151 
